<?xml version="1.0" encoding="UTF-8"?>
<svg xmlns="http://www.w3.org/2000/svg" viewBox="0 0 1080.79 1080">
  <rect width="1080.79" height="1080" rx="240" fill="#050505"/>
  <g transform="translate(540.395 540) scale(1.85) translate(-540.395 -540)">
    <path fill="#ffffff" d="M551.66,619.59l-17.28-13.91c-1.67-1.35-4.48-3.2-6.08-3.77-1.87-.66-5.48,2.41-7.02,4.07l-26.32,28.34-19.7,19.69c-22.39,22.38-50.19,41.41-82.12,44.68-33.98,3.49-61.16-19.13-66.61-51.81-1.46-8.77-1.8-15.75.21-24.62,2.35-10.36,5.29-19.44,10.76-28.48,13.46-22.23,23.15-35.4,41.26-54.39,57.61-60.44,139.06-106.37,217.28-134.04,20.38-7.21,66.52-20.23,86.23-21.74l19.92-1.53c11.03-.85,23.54-3.19,33.39,3.41,10.98,7.35,14.33,20.82,16.78,33.04,5.82,29.06,2.08,49.27-.05,77.39l-1.16,15.35c-1.42,18.76-4.4,48.73-7.75,66.66l-4.29,22.97c-1.04,5.54-2.28,10.65-3.68,16.13-9.25,36.3-28.6,89.99-77.15,76.79-21.79-5.93-47.17-24.92-64.79-39.54l-41.83-34.68ZM713.74,629.37l3.83-13.8c1.56-5.63,3.06-11.19,4.01-16.99l4.3-26.21c4.68-28.55,7.55-63.86,8.55-92.96.8-23.17,6.07-29.89.06-58.15-1.31-6.15-2.19-14.44-7.38-18.56-13.43-10.68-41.84,16.73-51.38,26.11-20.18,19.83-38.58,39.61-56.8,61.4l-75.91,90.77c-1.02,1.22-2.51,5.04-1.65,6.23s2.84,2.99,4.46,4.28l30.42,24.39c23.48,18.82,59.24,53.11,87.7,60.14,28.57,7.07,43.44-23.76,49.79-46.63ZM397.49,679.44c20.91-4.25,38.52-14.68,54.43-29.03,20.84-18.8,39.38-38.44,58.86-60.27-37.57-24.97-58.95-21.65-100.98-21.5-7.54,2.23-15.37,3.91-22.19,6.68-30.21,12.31-48.87,41.07-41.59,73.5,5.16,23.02,28.5,36.4,51.47,30.61Z"/>
  </g>
</svg>
