<?xml version="1.0" encoding="UTF-8"?>
<svg id="Capa_1" xmlns="http://www.w3.org/2000/svg" version="1.1" viewBox="0 0 1080.79 1080">
  <!-- Generator: Adobe Illustrator 30.3.0, SVG Export Plug-In . SVG Version: 2.1.3 Build 182)  -->
  <defs>
    <style>
      .st0 {
        fill: #fff;
      }
    </style>
  </defs>
  <g>
    <path class="st0" d="M528.92,599.22c11.45,3.48,21.83,6.39,33.5,2.38,13.06-4.5,16.64-17,15.4-29.66-4.49,4.58-9.05,8-15.07,9.62-15.08,4.06-31.38-.74-41.63-12.42-15.44-17.6-11.44-44.26,8.04-56.91,14.9-9.68,36.63-9.21,50.65,1.47,9,6.85,15.05,16.99,15.35,28.59.33,12.57.29,24.63-.02,37.15-.39,15.71-9.8,28.82-24.1,34.66-15.14,6.18-30.57,4.11-45.65-.74-4.35-1.4-7.04-4.07-6.15-8.72.81-4.2,4.87-6.87,9.68-5.41ZM577.83,553.85c.11-3.86.16-7.92-.03-11.57-.68-12.81-11.11-22.31-23.4-22.81-12.48-.51-23.37,8.57-25.21,21.19-1.22,8.35,2.18,16.66,8.12,21.85,6.55,5.72,15.09,7.54,23.51,5.32,7.39-1.95,13.55-6.84,17.01-13.98Z"/>
    <path class="st0" d="M457.55,509.34c20.6,9.55,28.5,34.65,16.96,54.06-13.54,22.76-46.96,25.68-65.13,8.66-6.59-6.17-11.92-14.46-11.95-23.86l-.18-65.89c-.02-6.07,7.02-6.6,11.73-5.91,2.55.37,5.22,2.69,5.23,5.44l.12,34.41c10.89-12.48,29.12-13.45,43.22-6.91ZM414.3,544.53c-.09,9.07,4.85,16.79,11.73,20.83,7.91,4.64,16.99,4.41,24.73-.14,10.26-6.03,14.38-18.5,10.39-29.59-3.87-10.77-14.78-17.41-26.59-15.91-8.97,1.14-16.98,6.54-19.92,15.36-.89,2.69-.31,6.23-.35,9.45Z"/>
    <path class="st0" d="M642.92,582.93c-24.46-.46-43.73-20.66-39.98-44.41,1.13-7.19,3.78-13.28,8.57-18.86,13.45-16.21,41.53-20.39,56.86-3.5l.25-35.05c.03-3.94,4.8-4.95,8.02-5.05s8.62,1.15,8.62,5.32v66.32c.02,8.42-4.32,16.21-9.82,22.12-8.49,9.13-20.22,13.35-32.53,13.11ZM661.63,525.57c-10.13-8.76-27.19-8.2-36.09,2.61-5.61,6.81-7.33,15.82-4.25,24.24,3.92,10.74,14.37,17.44,25.68,16.13,10.67-1.23,20.02-9.5,21.26-20.83,1.05-9.62.53-15.99-6.6-22.16Z"/>
    <path class="st0" d="M771.54,581.71c-4.33.74-11.59.27-12.02-4.78l-.47-5.48c-6.4,7.47-15.01,11.34-25,11.51-15.82.27-30.89-8.11-37.77-22.48-7.4-15.44-3.51-33.65,9.24-44.76,8.06-7.02,17.89-10.49,28.57-10.39,7.14.07,13.72,1.25,20.16,4.34,13.19,6.32,22.01,19.23,22.02,34.1l.03,31.73c0,3.07-1.61,5.67-4.76,6.21ZM758.47,553.51c.39-4.56.46-9.14-.04-13.21-1.37-11.28-10.62-19.42-21.08-20.64-11.34-1.32-21.65,4.95-25.72,15.07-4.21,10.48-.92,22.44,8.31,29.21,12.96,9.5,31.94,4.65,38.52-10.42Z"/>
    <path class="st0" d="M913.32,581.72c-4.27.84-11.49.12-11.94-4.74l-.51-5.57c-6.48,7.72-15.44,11.5-25.56,11.55-14.31.07-27.9-6.71-35.34-19.02-12.19-20.17-3.44-46.1,18.39-55.12,11.78-4.87,25.27-4.8,37,.6,13.13,6.04,22.68,18.59,22.72,33.16l.09,32.93c0,3.05-1.82,5.62-4.85,6.22ZM893.53,562.72c2.86-2.43,5.52-5.61,6.64-8.87.94-2.72.22-6.18.36-9.11.54-11.13-6.33-20.88-16.97-24.15-9.07-2.79-19.11-.25-25.48,6.88-5.3,5.93-7.54,13.6-5.86,21.54,1.4,6.59,5.51,13.16,12.16,16.69,9.26,4.92,20.87,4.05,29.14-2.98Z"/>
    <path class="st0" d="M807.04,559.24c2.98,5.26,8.05,8.49,14.01,8.56l9.39.11c3.63.04,6.04,3.06,6.27,6.6.22,3.4-1.94,7-5.68,7.16-4.84.21-9.69.31-14.66.07-9.37-.45-17.71-5.27-22.96-13-3.42-5.04-5.94-10.97-5.95-17.3l-.07-68.07c0-6.08,7.76-6.93,12.31-5.84,3.12,1.07,4.93,3.44,4.94,6.72l.02,23.13,22.15.06c3.73,0,6.31,3.14,6.11,6.77.54,3.76-2.19,7.15-6.13,7.16l-22.08.05-.07,27.8c0,3.49.93,6.75,2.4,10.03Z"/>
    <path class="st0" d="M499.19,581.65c-2.48.42-5.06.35-7.26-.02-3.31-.56-5.07-3.38-5.07-6.67l.02-61.93c0-6.32,7.66-6.91,12.14-5.91,3.11.7,5.15,3.19,5.15,6.41l-.05,62.4c0,2.83-2.12,5.24-4.94,5.72Z"/>
    <path class="st0" d="M506.27,488.22c-.55,5.14-4.66,8.39-9.08,9.1-4.69.75-9.26-1.62-11.47-5.94-1.77-3.46-1.22-7.27.92-10.43,2.01-2.97,5.52-4.63,9.62-4.32,5.87.45,10.68,5.35,10.01,11.59Z"/>
  </g>
  <path class="st0" d="M258.66,563.33l-7.33-5.9c-.71-.57-1.9-1.36-2.58-1.6-.79-.28-2.32,1.02-2.98,1.73l-11.17,12.02-8.36,8.35c-9.5,9.49-21.3,17.57-34.84,18.96-14.42,1.48-25.95-8.12-28.26-21.98-.62-3.72-.77-6.68.09-10.45,1-4.4,2.24-8.25,4.57-12.09,5.71-9.43,9.82-15.02,17.51-23.08,24.44-25.64,59-45.13,92.19-56.88,8.65-3.06,28.23-8.58,36.59-9.23l8.45-.65c4.68-.36,9.99-1.35,14.17,1.45,4.66,3.12,6.08,8.83,7.12,14.02,2.47,12.33.88,20.91-.02,32.84l-.49,6.51c-.6,7.96-1.87,20.67-3.29,28.28l-1.82,9.75c-.44,2.35-.97,4.52-1.56,6.85-3.92,15.4-12.14,38.18-32.73,32.58-9.25-2.52-20.01-10.58-27.49-16.78l-17.75-14.71ZM327.44,567.48l1.62-5.86c.66-2.39,1.3-4.75,1.7-7.21l1.82-11.12c1.98-12.11,3.2-27.1,3.63-39.44.34-9.83,2.57-12.68.02-24.67-.56-2.61-.93-6.13-3.13-7.88-5.7-4.53-17.75,7.1-21.8,11.08-8.56,8.41-16.37,16.81-24.1,26.05l-32.21,38.51c-.43.52-1.06,2.14-.7,2.64s1.21,1.27,1.89,1.82l12.91,10.35c9.96,7.99,25.14,22.53,37.21,25.52,12.12,3,18.43-10.08,21.13-19.79ZM193.25,588.73c8.87-1.8,16.34-6.23,23.09-12.32,8.84-7.98,16.71-16.31,24.98-25.57-15.94-10.6-25.01-9.19-42.85-9.12-3.2.95-6.52,1.66-9.41,2.84-12.82,5.22-20.74,17.42-17.65,31.19,2.19,9.77,12.09,15.44,21.84,12.99Z"/>
</svg>