<svg xmlns="http://www.w3.org/2000/svg" width="720" height="1280" viewBox="0 0 720 1280">
  <rect width="720" height="1280" fill="#111315"/>
  <g stroke="#090a0b" stroke-width="4.2" stroke-linecap="round" stroke-linejoin="round" fill="none" opacity="0.92">
    <circle cx="102" cy="84" r="36"/>
    <path d="M234 54h60v42h-60z"/>
    <path d="M396 60l48 30-48 30-48-30z"/>
    <path d="M548 54c27 0 48 21 48 48s-21 48-48 48-48-21-48-48 21-48 48-48z"/>
    <path d="M72 216c30-30 78-30 108 0"/>
    <path d="M222 174l36 72 42-72"/>
    <path d="M360 189c0-24 18-42 42-42s42 18 42 42-18 42-42 42h-18v33l-24-24V189z"/>
    <path d="M534 168l54 54m0-54-54 54"/>
    <path d="M90 330h66l18 30 18-30h66"/>
    <circle cx="291" cy="342" r="45"/>
    <path d="M270 342h42M291 321v42"/>
    <path d="M417 303l63 36-63 36z"/>
    <path d="M552 294l24 72 24-36 24 36 24-72"/>
    <path d="M84 480c0-30 24-54 54-54s54 24 54 54-24 54-54 54-54-24-54-54z"/>
    <path d="M252 435h78v78h-78z"/>
    <path d="M396 429c36 0 66 30 66 66s-30 66-66 66-66-30-66-66 30-66 66-66z"/>
    <path d="M519 435l39 39m33-39-39 39m-33 60 39-39m33 39-39-39"/>
    <path d="M72 633h72M108 597v72"/>
    <path d="M225 609c15-15 42-15 57 0s15 42 0 57-42 15-57 0-15-42 0-57z"/>
    <path d="M378 612h84l-42 60z"/>
    <path d="M552 612c0-21 18-39 39-39h24v78h-24c-21 0-39-18-39-39z"/>
    <path d="M108 780l45-15 33 42 30-33 45 12"/>
    <path d="M255 756c0-21 18-39 39-39h18c21 0 39 18 39 39v39h-96z"/>
    <path d="M405 738l24 24 24-24 24 24 24-24"/>
    <path d="M564 729l18 60 18-30 18 30 18-60"/>
    <path d="M90 936c30-15 66-15 96 0"/>
    <path d="M231 900l33 66 39-66"/>
    <path d="M390 897h78v54h-78z"/>
    <path d="M534 891c30 0 54 24 54 54s-24 54-54 54-54-24-54-54 24-54 54-54z"/>
    <path d="M84 1086h72l-36 54z"/>
    <path d="M249 1068l24 24m18-24-24 24m-18 36 24-24m18 24-24-24"/>
    <path d="M387 1059c0-24 18-42 42-42s42 18 42 42-18 42-42 42-42-18-42-42z"/>
    <path d="M546 1044h60v42h-60z"/>
    <path d="M66 1191c12-12 33-12 45 0s12 33 0 45-33 12-45 0-12-33 0-45z"/>
    <path d="M228 1176h84l-42 57z"/>
    <path d="M387 1164l33 66 39-66"/>
    <path d="M537 1167c0-21 18-39 39-39h18c21 0 39 18 39 39v39h-96z"/>
  </g>
  <g fill="#070808" opacity="0.95">
    <circle cx="42" cy="60" r="4.2"/>
    <circle cx="174" cy="126" r="4"/>
    <circle cx="330" cy="96" r="4.2"/>
    <circle cx="495" cy="174" r="4"/>
    <circle cx="648" cy="108" r="4.2"/>
    <circle cx="606" cy="396" r="4.2"/>
    <circle cx="438" cy="264" r="4"/>
    <circle cx="204" cy="264" r="4.2"/>
    <circle cx="363" cy="408" r="4.2"/>
    <circle cx="48" cy="396" r="4"/>
    <circle cx="180" cy="582" r="4.2"/>
    <circle cx="330" cy="552" r="4"/>
    <circle cx="492" cy="642" r="4.2"/>
    <circle cx="654" cy="564" r="4"/>
    <circle cx="120" cy="870" r="4.2"/>
    <circle cx="285" cy="819" r="4"/>
    <circle cx="474" cy="882" r="4.2"/>
    <circle cx="639" cy="813" r="4"/>
    <circle cx="114" cy="1128" r="4.2"/>
    <circle cx="342" cy="1200" r="4"/>
    <circle cx="606" cy="1140" r="4.2"/>
  </g>
</svg>
