<?xml version="1.0" encoding="UTF-8"?>
<svg id="Capa_1" xmlns="http://www.w3.org/2000/svg" version="1.1" viewBox="0 0 243.92 246.44">
  <!-- Generator: Adobe Illustrator 30.3.0, SVG Export Plug-In . SVG Version: 2.1.3 Build 182)  -->
  <defs>
    <style>
      .st0 {
        fill: #667781;
      }
    </style>
  </defs>
  <path class="st0" d="M178.75,178.96c-22.03,22.32-42.4,32.96-74.11,31.84-36.65-1.29-67.93-25.19-67.81-64.93l.14-42.56c.11-35.82,27.91-63.73,63.65-63.67l42.63.08c41.94.08,65.8,33.41,65.31,71.93-.36,28.58-9.86,47.09-29.8,67.3ZM81.71,136.29c20.74-.8,37.86-.23,52.61-3.27l52.04-10.73c10.32-13.17,2.64-48.04-16.35-57.8-18.39-9.45-39.7-7.75-60.85-8.19-24.23-.51-49.89,10.1-53.47,37.19-2.55,19.3-3,44.1.25,63.51,5.1,30.48,36.97,40.7,65.27,34.23l.22-26.39c-20.75-1.89-35.27-8.5-39.72-28.54ZM186.06,145.28c-14.14-6.18-31.35-4.71-40.67,5.29-6.99,7.49-7.22,24.46-4.46,38.45,15.65-14.16,27.43-25.56,45.13-43.74Z"/>
  <path class="st0" d="M92.4,84.19c4.8-.73,13.86,8.78,13.12,13.33s-8.14,12.49-12.74,12.83-11.13-6.19-13.08-10.36c-1.95-4.16,6.71-14.88,12.71-15.79Z"/>
  <path class="st0" d="M152.24,84.17c4.65-.67,13.74,8.8,12.99,13.34s-8.15,12.5-12.75,12.83c-4.6.33-11.12-6.2-13.1-10.35s6.48-14.9,12.86-15.82Z"/>
</svg>
