<?xml version="1.0" encoding="UTF-8"?>
<svg xmlns="http://www.w3.org/2000/svg" viewBox="0 0 147.6 147.6">
  <path fill="#fff" d="M32.19,115.4l5.29-21.41c-10.76-18.13-6.44-41.49,10.01-54.56,16.54-13.14,40.33-11.99,55.52,2.65s17.21,38.38,4.68,55.38c-12.5,16.97-35.74,22.17-54.39,11.86l-21.1,6.08ZM42.43,104.83l11.98-3.48c14.99,10.36,35.3,7.37,46.76-6.52,11.46-13.9,10.47-34.17-2.19-46.88-12.8-12.86-33.28-13.74-47.12-2.19s-16.65,31.85-6.33,46.78l-3.09,12.29Z"/>
  <path fill="#fff" d="M86.87,78.11l6.29,3.41c1.49.81,1.7,2.3,1.54,3.82-.34,3.14-2.16,5.48-5.22,6.36-3.41.98-6.83.69-10.27-.26-6.99-1.94-13.2-5.57-18.02-11.02-3.87-4.38-6.65-9.4-8.27-15.01-.75-2.6-.79-5.2.65-7.54,1.28-2.09,3.15-3.86,5.43-4.81,1.9-.79,4.02.17,4.73,2.02l2.75,7.14c.35.91.42,2.56-.2,3.28l-3.15,3.67c2.67,6.78,9.25,11.1,15.81,13.89l4.28-4.4c.95-.97,2.3-.97,3.66-.55Z"/>
</svg>
